<svg xmlns="http://www.w3.org/2000/svg" viewBox="0 0 549.22 220.67"><defs><style>.cls-1{fill:#1a335f;}.cls-2{fill:#4dc0ef;}</style></defs><g id="Layer_1" data-name="Layer 1"><path class="cls-1" d="M128.45,154.5H93.88a49,49,0,0,1-34.3-13.89l-.07-.06L39.14,121.69A4,4,0,0,1,38,118.9a4,4,0,0,1,1.15-2.84,4,4,0,0,1,2.82-1.2h0a4,4,0,0,1,2.8,1.15l.11.1L68,137.22a12,12,0,0,0,8.82,3.87h20a4,4,0,1,0,0-8h-20a4,4,0,0,1-2.24-.68.23.23,0,0,0-.07-.07l-.81-.75a4,4,0,0,1-.89-2.5,4,4,0,0,1,4-4h38.41a9.24,9.24,0,0,1,9.23,9.24v4.17a4,4,0,1,0,8,0v-4.17a17.25,17.25,0,0,0-17.23-17.24H76.35a12,12,0,0,0-10.58,7.27L50.33,110.24a12,12,0,0,0-16.76,17.2l.08.08L54,146.4a57.26,57.26,0,0,0,39.84,16.1h34.57a4,4,0,1,0,0-8Z"/><path class="cls-2" d="M115.68,60h0a35.63,35.63,0,0,0-4.32-6.52h0a36.16,36.16,0,0,0-7.58,1.92,36.53,36.53,0,0,0-18,14.46l0,.1a.54.54,0,0,1,0,.11c.1.2.2.41.29.61.2.42.38.84.56,1.27A42,42,0,0,1,89,78.75h0c.07-.19.15-.38.23-.57.15-.36.3-.71.46-1.05l.19-.38c.12-.26.25-.52.39-.77s.19-.37.29-.55.26-.48.4-.72l.29-.48.51-.82.34-.5.37-.53.55-.74.34-.44c.19-.24.39-.47.59-.71l.4-.47.44-.49.49-.51.59-.6.41-.38q.34-.33.69-.63l.46-.4.47-.39c.25-.21.5-.4.76-.59l.46-.35.68-.48.54-.36.66-.42.4-.24c.3-.19.62-.36.93-.53l.4-.22,1-.5.34-.16,1-.44.32-.13.81-.32.41-.15.86-.29q.49-.16,1-.3c.15.24.3.48.44.73a2.39,2.39,0,0,1,.13.21c.14.24.27.48.4.72,0,.08.09.16.13.25s.19.37.29.56L110,64l.19.4.19.42.16.37c.25.59.48,1.18.69,1.79,0,.07.05.15.08.22s.14.41.2.62l.06.17a30.39,30.39,0,0,1,.75,3l0,0a30.09,30.09,0,0,1,.55,5.73,29.46,29.46,0,0,1-8,20.22l-.19.2-.1.1-.21.22-.51.51a18.62,18.62,0,0,1-15.37.77.9.9,0,0,1-.06.22,2.29,2.29,0,0,1-.08-.28,26.23,26.23,0,0,1-4.22-2l.27-1.17,0-.16c.07-.33.13-.67.19-1,0,0,0,0,0-.08l.09-.54s0-.09,0-.14,0-.24,0-.36,0-.21.05-.32,0-.18,0-.28v0c0-.32.08-.65.12-1a1.1,1.1,0,0,1,0-.18c0-.34.06-.69.08-1,0,0,0-.09,0-.14,0-.78.08-1.58.08-2.37,0-.47,0-.94,0-1.4v-.08c0-.45,0-.9-.08-1.35V85c0-.45-.08-.9-.13-1.34V83.6c-.11-.92-.25-1.83-.43-2.72v-.06c-.09-.43-.18-.87-.28-1.3l0-.1c-.1-.43-.21-.85-.33-1.28v-.06c-.27-.94-.57-1.87-.9-2.78-.14-.39-.3-.77-.45-1.14a.76.76,0,0,1,0-.11l-.07-.16-.18-.42h0a.5.5,0,0,1,0-.13.2.2,0,0,1,0-.08l0,0a2.52,2.52,0,0,0-.15-.34c-.17-.39-.36-.78-.55-1.17l-.06-.1-.06-.13c-.12-.24-.25-.48-.38-.72l-.1-.19c-.29-.54-.6-1.07-.92-1.59v0l0,0h0v0h0l0,0h0l0,0c-.34-.56-.7-1.1-1.08-1.64L78.62,67l-.69-1h0c-.25-.32-.49-.64-.75-1l-.1-.12c-.22-.28-.45-.55-.68-.82l-.1-.11c-.26-.3-.52-.59-.79-.88l-.08-.08c-.24-.26-.48-.52-.73-.77l-.15-.15c-.55-.55-1.11-1.08-1.69-1.59l-.18-.15-.87-.74h0L70.88,59l-.19-.15-.81-.59a.71.71,0,0,0-.14-.1l-.95-.65-.17-.11-.83-.53-.21-.12c-.32-.2-.66-.39-1-.58l-.11-.06-.92-.49-.23-.12c-.34-.17-.69-.35-1-.51l-.55-.25-.38-.17-.11,0-.15-.07-.2-.09h0l-.09,0-.2-.08-.24-.1-.11,0h-.09l-.07,0h0L62,54l-.41-.16-.13-.05h0l-.12-.05h0l-.1,0h-.06l-.08,0,0,0-.25-.08-.2-.07-.07,0h-.09l-.09,0h-.09a.17.17,0,0,0-.1,0l-.29-.1-.11,0h0l-.05,0h0l-.13,0h-.16l-.09,0L58.86,53l0,0h-.06l-.06,0h-.11l-.07,0h0l-.07,0h-.14l-.05,0L58,52.71l-.23-.06h-.25l-.06,0h-.06l-.08,0h-.06l-.06,0h-.07l-.15,0h-.22l-.28-.07h0c-.12.12-.21.24-.33.36l-.18.21,0,.06-.23.27h0l-.07.08-.39.47-.22.26c-.08.1-.15.2-.23.29l-.44.58-.28.39h0l-.27.37-.55.8c-.08.13-.18.26-.27.4l-.33.53a1.74,1.74,0,0,0-.11.18.41.41,0,0,0-.07.11l0,.07-.45.76c-.31.53-.61,1.08-.9,1.63a37.54,37.54,0,0,0-2.1,5c-.14.4-.26.8-.38,1.21l-.15.49c-.09.34-.18.68-.26,1a2.5,2.5,0,0,0-.07.26,37,37,0,0,0-.75,4.1A33.89,33.89,0,0,0,47,75.94a2.81,2.81,0,0,0,0,.29v.57a36.31,36.31,0,0,0,7.87,22.62l.4.5.63.74.42.48c.43.47.87.94,1.33,1.39A30.47,30.47,0,0,0,60,104.7c.41.35.82.68,1.25,1h0l.51.39h0c.26.19.52.38.79.56h0c.26.18.53.37.8.54h0c.36.24.74.48,1.11.7l.12.08.62.37h0l.56.31.11.06c.39.22.79.43,1.19.63l.16.08c.4.2.81.39,1.23.58l1.09.47h0l.84.33.28.11.28.1.18.06.22.08.23.08.45.15h0l.45.15h0l.46.14h0l.07,0,.27.08.12,0h0l.33.09.13,0c.35.1.71.18,1.06.27l.84.19h.08l.58.12c.22,0,.44.09.67.12h0l.08,0,.27,0,.25,0h.09l.24,0,.11,0h0l1,.13.7.07.35,0h0l.35,0h0l.34,0h0l.35,0h0l1.37,0H84.5c1,0,2-.11,3-.22l.49-.06.49-.06a37,37,0,0,0,5.28-1.15l.47-.14q.93-.28,1.83-.63a36.06,36.06,0,0,0,8.48-4.5h0c.9-.64,1.77-1.33,2.6-2A36.47,36.47,0,0,0,115.68,60Zm-30,46.2c-.51,0-1,.07-1.55.08h-.77c-1,0-2-.06-3.05-.15l-.46-.05c-.72-.09-1.42-.2-2.12-.33l-.84-.18-.83-.2a27.06,27.06,0,0,1-2.82-.87A29.55,29.55,0,0,1,58.56,60.77h0l.38-.58.22.08.08,0h0a28.52,28.52,0,0,1,2.66,1.16A29.52,29.52,0,0,1,78.36,88,30.66,30.66,0,0,1,78,92.37C69.11,84.73,62.52,73.73,60.7,70.52v0h0v.29a36.37,36.37,0,0,0,15,29.44c.47.34.94.66,1.42,1h0a35.65,35.65,0,0,0,4.52,2.54l.79.36h0l.8.33c.94.39,1.88.74,2.85,1,.29.1.58.19.88.27s.6.17.9.24Z"/><path class="cls-2" d="M96.77,94c12.26-10.32,7.66-23.25,7.66-23.25S98.2,82.53,92,88.49A3.65,3.65,0,0,0,96.77,94Z"/><path class="cls-2" d="M184.88,154.07H166.55l-3.8,8.62h-5.08l15.63-34.5h4.88l15.67,34.5h-5.18Zm-1.72-3.95-7.45-16.9-7.44,16.9Z"/><path class="cls-2" d="M199,128.19h4.92V158.4h18.68v4.29H199Z"/><path class="cls-2" d="M231.9,132.48H220.07v-4.29h28.54v4.29H236.78v30.21H231.9Z"/><path class="cls-2" d="M279,158.4v4.29H254v-34.5h24.35v4.29H258.91v10.59h17.3v4.19h-17.3V158.4Z"/><path class="cls-2" d="M310.07,162.69l-7.45-10.6c-.92.07-1.64.1-2.16.1h-8.53v10.5H287v-34.5h13.46q6.69,0,10.54,3.2a10.86,10.86,0,0,1,3.85,8.83,11.52,11.52,0,0,1-2,6.8,11.15,11.15,0,0,1-5.61,4.09l8.18,11.58ZM307.45,146a7.94,7.94,0,0,0,0-11.51q-2.46-2-7.14-2h-8.38V148h8.38Q305,148,307.45,146Z"/><path class="cls-2" d="M352.5,128.19v34.5h-4L327.76,137v25.73h-4.93v-34.5h4l20.7,25.73V128.19Z"/><path class="cls-2" d="M384.83,154.07H366.5l-3.8,8.62h-5.07l15.62-34.5h4.88l15.67,34.5h-5.17Zm-1.72-3.95-7.44-16.9-7.45,16.9Z"/><path class="cls-2" d="M404.05,132.48H392.23v-4.29h28.53v4.29H408.93v30.21h-4.88Z"/><path class="cls-2" d="M426.13,128.19h4.93v34.5h-4.93Z"/><path class="cls-2" d="M471,128.19l-15.13,34.5H451l-15.18-34.5h5.33l12.42,28.34,12.51-28.34Z"/><path class="cls-2" d="M500.46,158.4v4.29h-25v-34.5h24.35v4.29H480.35v10.59h17.3v4.19h-17.3V158.4Z"/><path class="cls-1" d="M168.83,72v17.3h24.9v6.1h-24.9v20.08h-7.09V65.85h35V72Z"/><path class="cls-1" d="M211.89,110.4q-5.53-5.67-5.53-16.31V65.85h7.09v28q0,16,14,16,6.81,0,10.43-3.94t3.62-12V65.85h6.88V94.09q0,10.71-5.54,16.35t-15.46,5.63Q217.42,116.07,211.89,110.4Z"/><path class="cls-1" d="M305.59,65.85v49.66h-5.82L270,78.48v37h-7.09V65.85h5.81l29.79,37v-37Z"/><path class="cls-1" d="M320.48,65.85h20.93a30.25,30.25,0,0,1,14,3.13,22.93,22.93,0,0,1,9.47,8.76,24.7,24.7,0,0,1,3.37,12.94,24.73,24.73,0,0,1-3.37,12.95,22.93,22.93,0,0,1-9.47,8.76,30.25,30.25,0,0,1-14,3.12H320.48ZM341,109.34A23,23,0,0,0,351.59,107a16.91,16.91,0,0,0,7.05-6.57,20.33,20.33,0,0,0,0-19.5,16.83,16.83,0,0,0-7.05-6.56A23,23,0,0,0,341,72h-13.4v37.31Z"/><path class="cls-1" d="M379.07,65.85h7.1v49.66h-7.1Z"/><path class="cls-1" d="M443.76,65.85v49.66H438l-29.8-37v37h-7.09V65.85h5.82l29.79,37v-37Z"/><path class="cls-1" d="M493.06,90.4h6.81v19.36a26.19,26.19,0,0,1-8.58,4.68,32.07,32.07,0,0,1-10.22,1.63,27.87,27.87,0,0,1-13.55-3.29,24.54,24.54,0,0,1-9.47-9.08,26.42,26.42,0,0,1,0-26.07,24.16,24.16,0,0,1,9.51-9.08,28.39,28.39,0,0,1,13.65-3.26A28.79,28.79,0,0,1,492,67.24,21.94,21.94,0,0,1,500.29,73l-4.39,4.4a20,20,0,0,0-14.4-5.75,21,21,0,0,0-10.18,2.45,17.93,17.93,0,0,0-7.06,6.81,20,20,0,0,0,0,19.57,18.23,18.23,0,0,0,7.06,6.85,20.63,20.63,0,0,0,10.11,2.48,21,21,0,0,0,11.63-3.19Z"/></g></svg>