<svg xmlns="http://www.w3.org/2000/svg" viewBox="0 0 303.66 280.57"><defs><style>.cls-1{fill:#1a335f;}.cls-2{fill:#fff;}.cls-3{fill:#4dc0ef;}</style></defs><g id="Layer_1" data-name="Layer 1"><rect class="cls-1" width="303.66" height="280.57"/><path class="cls-2" d="M227.9,219.73H166.67a86.89,86.89,0,0,1-60.75-24.59l-.11-.11-36.08-33.4a7.09,7.09,0,0,1,5-12.09h.07a7,7,0,0,1,5,2l.19.18,40.92,37.39A21.24,21.24,0,0,0,136.44,196h35.45a7.09,7.09,0,1,0,0-14.18H136.44a7.09,7.09,0,0,1-4-1.21l-.12-.12-1.44-1.32a7.08,7.08,0,0,1,5.52-11.53h68A16.38,16.38,0,0,1,220.81,184v7.4a7.09,7.09,0,1,0,14.18,0V184a30.57,30.57,0,0,0-30.53-30.53H150.24l0,0H135.64a21.32,21.32,0,0,0-18.75,12.87l-27.33-25a21.27,21.27,0,0,0-29.7,30.46L60,172l36.11,33.43a101.51,101.51,0,0,0,70.55,28.53H227.9a7.09,7.09,0,0,0,0-14.18Z"/><path class="cls-3" d="M205.28,52.45h0a63.89,63.89,0,0,0-7.66-11.54h0a63.86,63.86,0,0,0-13.43,3.39,64.57,64.57,0,0,0-31.78,25.61,1.42,1.42,0,0,1,.08.18l.09.19c.18.36.35.72.52,1.09.34.74.67,1.49,1,2.24a73.51,73.51,0,0,1,3.88,12h0c.13-.34.28-.67.42-1,.26-.63.53-1.24.81-1.86.11-.22.22-.44.32-.66.23-.47.46-.92.69-1.38s.34-.64.52-1,.47-.86.72-1.29l.5-.84c.3-.49.61-1,.92-1.45.19-.3.4-.6.6-.89s.43-.63.65-.94.64-.87,1-1.3l.6-.78,1-1.26.72-.83.78-.87.86-.91c.35-.36.7-.71,1.06-1.06l.71-.68,1.23-1.12.82-.7c.27-.24.55-.47.83-.7.44-.35.88-.7,1.33-1l.82-.61c.4-.28.8-.57,1.2-.84s.64-.44,1-.65.77-.5,1.17-.74l.69-.43c.55-.33,1.11-.64,1.67-1l.7-.37c.58-.31,1.17-.61,1.76-.89l.61-.29c.59-.27,1.17-.53,1.77-.78l.56-.23,1.44-.56.72-.26c.51-.18,1-.36,1.54-.52s1.16-.37,1.75-.53c.27.42.52.85.78,1.29l.22.38c.24.42.48.84.71,1.27l.23.43c.18.33.35.67.52,1s.24.51.37.76l.33.71c.12.25.23.5.34.75s.19.44.28.65c.44,1,.86,2.1,1.23,3.17l.14.39.36,1.1.09.31a51.2,51.2,0,0,1,1.35,5.29V72a52.43,52.43,0,0,1-13.19,45.94l-.35.36-.17.18-.37.38c-.3.31-.61.61-.91.91-9.35,4.76-18.58,4.53-27.21,1.37a1.43,1.43,0,0,1-.11.39c-.06-.16-.1-.33-.15-.49a48.53,48.53,0,0,1-7.47-3.56c.17-.69.33-1.38.47-2.07l.06-.29c.12-.59.24-1.18.34-1.78l0-.13c.06-.32.11-.64.16-1a2,2,0,0,0,0-.24c0-.22.06-.43.1-.65s.05-.38.08-.57l.06-.48s0-.07,0-.1c.07-.57.13-1.15.19-1.73,0-.11,0-.21,0-.32q.09-.91.15-1.83a1.94,1.94,0,0,1,0-.24c.09-1.39.13-2.8.13-4.21,0-.83,0-1.65-.05-2.47v-.15c0-.8-.08-1.59-.14-2.38,0-.08,0-.15,0-.23-.06-.79-.14-1.58-.23-2.36a.45.45,0,0,1,0-.11c-.2-1.63-.45-3.24-.76-4.82a.29.29,0,0,1,0-.09c-.15-.78-.32-1.54-.5-2.31,0-.06,0-.12,0-.18-.18-.76-.37-1.51-.58-2.26l0-.11c-.47-1.67-1-3.32-1.59-4.93-.25-.68-.52-1.35-.8-2l-.07-.19-.12-.29c-.11-.24-.21-.49-.32-.73h0L146,76c0-.05,0-.09-.07-.14a.64.64,0,0,1,0-.07l-.27-.59q-.48-1-1-2.07l-.09-.19-.12-.22-.67-1.28-.18-.34c-.52-1-1.06-1.89-1.62-2.81l0,0,0-.05,0,0h0l0,0,0,0h0a.43.43,0,0,0,0-.07h0l0,0c-.61-1-1.25-2-1.91-2.9l-.17-.24c-.39-.57-.8-1.13-1.21-1.68h0c-.43-.57-.87-1.13-1.32-1.69l-.17-.21c-.4-.49-.81-1-1.22-1.46l-.16-.18c-.46-.53-.93-1.06-1.41-1.57L134,57.9c-.43-.46-.87-.91-1.31-1.36-.08-.09-.17-.17-.26-.26q-1.45-1.45-3-2.82l-.32-.27c-.5-.44-1-.87-1.53-1.3l0,0c-.53-.43-1.08-.85-1.62-1.27l-.34-.26-1.44-1.05-.24-.17c-.56-.39-1.12-.78-1.69-1.15l-.31-.2-1.47-.93-.35-.21c-.59-.36-1.18-.7-1.77-1l-.2-.11q-.8-.45-1.62-.87l-.41-.21c-.61-.31-1.22-.61-1.84-.9l-1-.45-.67-.29-.18-.08-.27-.12-.37-.16h0l-.17-.07-.35-.15-.42-.17-.2-.08h-.06l0,0h0l-.13-.05h0l-.18-.07-.74-.28-.23-.08-.06,0h0l-.22-.08-.07,0-.17-.06h0l0,0h0l-.13,0-.1,0-.45-.16-.34-.11-.13,0h-.11l-.05,0-.15-.05h0l-.1,0h-.06l-.17-.05-.52-.17-.19-.06-.07,0-.1,0h-.05l-.22-.07h0l0,0h0l0,0h-.14l-.16,0-.5-.15-.07,0h-.1l-.1,0h-.07l-.07,0h-.06l-.13,0,0,0-.14,0-.08,0h-.06l-.1,0-.09,0-.5-.13-.4-.1h0l-.08,0h-.15l-.08,0-.08,0-.12,0H102l-.14,0h0l-.09,0-.1,0-.13,0-.27-.06-.14,0H101l-.08,0h0l-.5-.11h0c-.21.21-.38.42-.59.64s-.21.25-.32.38l-.08.09-.41.48,0,0-.13.15-.69.82-.38.47-.41.52c-.26.34-.52.67-.78,1s-.34.45-.5.68l0,0-.49.66c-.33.46-.64.93-1,1.4-.14.24-.31.48-.47.72s-.4.62-.59.93c-.07.11-.14.21-.2.32l-.12.19a1,1,0,0,1-.08.14l-.81,1.33c-.55,1-1.07,1.92-1.58,2.9a66,66,0,0,0-3.73,8.86c-.23.71-.46,1.42-.67,2.14l-.26.89c-.16.59-.32,1.19-.47,1.79l-.12.47a64.32,64.32,0,0,0-1.33,7.25,60.07,60.07,0,0,0-.46,6.49c0,.17,0,.34,0,.51,0,.33,0,.67,0,1a64.2,64.2,0,0,0,8.63,32.26,64.92,64.92,0,0,0,5.31,7.8l.72.88c.36.44.73.88,1.1,1.31l.75.85c.76.84,1.55,1.67,2.35,2.48q2,2,4.19,3.84c.73.61,1.47,1.2,2.22,1.78h0l.9.68h0c.45.34.92.68,1.38,1h0q.69.5,1.41,1h0c.65.43,1.31.84,2,1.25l.22.13,1.09.65h0l1,.55.2.12c.69.38,1.4.75,2.11,1.1l.27.14c.72.36,1.45.7,2.18,1l1.94.83h0l1.48.58.5.19.5.18.31.11.4.14.4.14.81.27h0l.81.26h0l.81.25h0l.13,0,.48.14.22.06h0l.58.16.23.06,1.89.48c.49.11,1,.23,1.49.33l.13,0,1,.21,1.18.22h.08l.13,0,.48.08.45.08.15,0h0l.43.07.18,0h0c.61.09,1.23.17,1.85.24l1.24.13.62,0h0l.62.05h0l.61,0h0l.63,0h0c.82.05,1.63.08,2.44.09h1.12q1,0,2,0h0c1.77-.05,3.53-.19,5.27-.38l.86-.11.87-.11a64.22,64.22,0,0,0,9.35-2l.83-.25c1.1-.34,2.18-.71,3.25-1.11a64.29,64.29,0,0,0,15-8h0c1.6-1.14,3.13-2.35,4.62-3.64a64.58,64.58,0,0,0,15.13-78.5Zm-53.11,81.82c-.9.07-1.82.12-2.75.14h0c-.45,0-.9,0-1.35,0-1.81,0-3.61-.1-5.38-.27l-.82-.09c-1.27-.15-2.53-.35-3.77-.59-.5-.09-1-.2-1.48-.31s-1-.22-1.47-.35c-1.69-.43-3.36-.95-5-1.54a52.34,52.34,0,0,1-26-77.54h0c.22-.34.44-.68.67-1l.38.13.15.06h0c1.61.61,3.17,1.29,4.7,2.05a52.31,52.31,0,0,1,29.16,46.91,53.29,53.29,0,0,1-.59,7.84c-15.79-13.54-27.46-33-30.69-38.71a.08.08,0,0,1,0,0v.52a64.37,64.37,0,0,0,26.56,52.13c.82.6,1.65,1.18,2.5,1.74h0a63.12,63.12,0,0,0,8,4.49l1.4.64h0l1.42.59c1.66.69,3.33,1.3,5,1.85.51.17,1,.32,1.56.47l1.6.43Z"/><path class="cls-3" d="M171.79,112.55c21.71-18.27,13.56-41.16,13.56-41.16s-11,20.89-22.08,31.45a6.46,6.46,0,0,0,8.52,9.71Z"/></g></svg>